<svg width="65" height="64" viewBox="0 0 65 64" fill="none" xmlns="http://www.w3.org/2000/svg">
<g clip-path="url(#clip0_632_595)">
<rect x="0.976562" width="64" height="64" rx="10" fill="#FFEFE6"/>
<path d="M25.4658 37.6366C24.8254 36.6489 24.4831 35.5173 24.4754 34.3623C24.4677 33.2073 24.7948 32.0718 25.422 31.0767L37.5762 11.7916C38.363 10.5432 39.5801 9.58165 41.0278 9.06463C42.4756 8.54761 44.0683 8.50575 45.5449 8.94588L53.4113 11.2906C54.3719 11.577 55.2529 12.0584 55.9912 12.7004C56.7295 13.3424 57.3069 14.1291 57.6819 15.0042C58.0569 15.8792 58.2203 16.821 58.1604 17.7621C58.1004 18.7031 57.8187 19.62 57.3352 20.4473L51.225 30.9043C50.671 31.8524 50.3829 32.9164 50.3878 33.9968C50.3927 35.0772 50.6905 36.1389 51.2531 37.0826L57.4281 47.4395C57.9211 48.2665 58.2116 49.1854 58.2785 50.1301C58.3454 51.0747 58.1871 52.0215 57.815 52.902C57.4429 53.7825 56.8664 54.5748 56.1269 55.2216C55.3875 55.8683 54.5035 56.3535 53.5391 56.642L45.4825 59.0522C44.0191 59.4899 42.4409 59.4541 41.0019 58.9506C39.563 58.4471 38.3472 57.5053 37.5508 56.2769L25.4658 37.6366Z" fill="#FF6357"/>
<path d="M-11.6919 10.7175C-5.85465 8.9293 4.72464 9.89587 11.4384 10.7959C15.2122 11.3018 18.2605 14.0648 19.1398 17.7695C24.6665 41.0563 24.2535 66.5238 -11.6919 55.7349C-14.8667 54.782 -13.7038 11.3338 -11.6919 10.7175Z" fill="#FF6357"/>
</g>
<defs>
<clipPath id="clip0_632_595">
<rect x="0.976562" width="64" height="64" rx="10" fill="white"/>
</clipPath>
</defs>
</svg>
